<?xml version="1.0" encoding="iso-8859-1"?>
<!-- Generator: Adobe Illustrator 16.0.0, SVG Export Plug-In . SVG Version: 6.00 Build 0)  -->
<!DOCTYPE svg PUBLIC "-//W3C//DTD SVG 1.1//EN" "http://www.w3.org/Graphics/SVG/1.1/DTD/svg11.dtd">
<svg fill="#efefef" version="1.1" id="Capa_1" xmlns="http://www.w3.org/2000/svg" xmlns:xlink="http://www.w3.org/1999/xlink" x="0px" y="0px"
	 width="59.895px" height="59.895px" viewBox="0 0 59.895 59.895" style="enable-background:new 0 0 59.895 59.895;"
	 xml:space="preserve">
<g>
	<path d="M23.773,52.41l3.549,1.397L23.095,8.247c-0.122-1.313-1.075-1.734-2.128-0.94l-5.7,4.293
		c-1.053,0.793-1.744,2.492-1.542,3.796l0.753,4.869h8.663L23.773,52.41z"/>
	<path d="M4.802,24.016l4.294,29.792l-3.8-1.392L0.105,30.648c-0.305-1.283,0.08-3.184,0.861-4.246l2.081-2.827
		C3.829,22.514,4.615,22.711,4.802,24.016z"/>
	<path d="M43.953,53.992h8.34l7.476-21.895c0.426-1.247-0.261-2.54-1.533-2.886l-9.741-2.647L43.953,53.992z M50.087,30.268h3.378
		v3.376h-3.378V30.268z M52.97,46.329h-3.378v-3.377h3.378V46.329z M51.28,40.277V36.9h3.379v3.376L51.28,40.277L51.28,40.277z"/>
	<path d="M7.35,21.237c-1.319,0-2.222,1.056-2.018,2.358l4.819,30.627h12.511l-0.649-32.985H7.35z M9.096,29.597v-3.378h3.378v3.378
		H9.096z M10.433,33.821h3.378v3.377h-3.378V33.821z M13.811,39.119h3.377v3.377h-3.377V39.119z M17.562,48.02h-3.378v-3.379h3.378
		V48.02z M17.995,31.528h-3.378v-3.379h3.378V31.528z"/>
	<path d="M24.314,7.384l3.996,46.424l4.798,0.062l-1.182-9.227h8.653l-1.495,9.303l3.787,0.048l5.946-37.732
		c0.205-1.303-0.635-2.716-1.878-3.157L26.359,5.802C25.117,5.362,24.2,6.07,24.314,7.384z M36.209,14.815h3.379v3.377h-3.379
		V14.815z M36.209,22.842h3.379v3.378h-3.379V22.842z M32.82,30.268h-3.378v-3.377h3.378V30.268z M32.82,16.504h-3.378v-3.378h3.378
		V16.504z M36.649,41.967h-3.377V38.59h3.377V41.967z M40.58,34.903h-3.377v-3.375h3.377V34.903z M42.265,19.881v-3.377h3.379v3.377
		H42.265z"/>
</g>
<g>
</g>
<g>
</g>
<g>
</g>
<g>
</g>
<g>
</g>
<g>
</g>
<g>
</g>
<g>
</g>
<g>
</g>
<g>
</g>
<g>
</g>
<g>
</g>
<g>
</g>
<g>
</g>
<g>
</g>
</svg>
